<svg width="127" height="92" viewBox="0 0 127 92" fill="none" xmlns="http://www.w3.org/2000/svg">
<ellipse cx="103.039" cy="45.8664" rx="23.9614" ry="23.171" fill="white"/>
<path d="M103.039 24.4332C90.804 24.4332 80.8744 34.0353 80.8744 45.8664C80.8744 57.6975 90.804 67.2996 103.039 67.2996C115.273 67.2996 125.203 57.6975 125.203 45.8664C125.203 34.0353 115.273 24.4332 103.039 24.4332ZM103.039 63.0129C93.2642 63.0129 85.3072 55.3184 85.3072 45.8664C85.3072 36.4144 93.2642 28.7198 103.039 28.7198C112.813 28.7198 120.77 36.4144 120.77 45.8664C120.77 55.3184 112.813 63.0129 103.039 63.0129ZM111.638 37.9147L98.6058 50.5174L94.4389 46.488C94.0245 46.0872 93.4624 45.8621 92.8763 45.8621C92.2903 45.8621 91.7282 46.0872 91.3138 46.488C90.8993 46.8887 90.6665 47.4322 90.6665 47.999C90.6665 48.5657 90.8993 49.1093 91.3138 49.51L97.0543 55.0612C97.9187 55.8971 99.3151 55.8971 100.179 55.0612L114.786 40.9368C114.991 40.7385 115.154 40.5029 115.265 40.2437C115.377 39.9844 115.434 39.7064 115.434 39.4257C115.434 39.145 115.377 38.8671 115.265 38.6078C115.154 38.3485 114.991 38.113 114.786 37.9147C113.921 37.0788 112.503 37.0788 111.638 37.9147V37.9147Z" fill="#333333"/>
<path d="M68.4131 25.4169L68.4059 25.4125L68.3935 25.4056L68.2632 25.334L67.769 25.0622L66.0093 24.0948C64.5554 23.2957 62.6227 22.234 60.707 21.1831C58.8791 20.1845 57.8462 18.2201 58.0452 16.1921L58.0457 16.1869C58.2521 14.1564 59.6732 12.4723 61.6343 11.851C65.7626 10.5433 70.2761 10.8692 74.1662 12.7968C78.0492 14.7208 81.0119 18.0561 82.3715 22.0976L82.9758 23.8938C83.6638 25.9387 82.9499 28.1424 81.2349 29.4287C79.5273 30.7095 77.1881 30.8224 75.3422 29.6928L75.3421 29.6928L75.3346 29.6881C73.538 28.5745 71.7979 27.5007 70.5068 26.7052C69.8613 26.3075 69.3281 25.9794 68.9564 25.7508L68.526 25.4862L68.4131 25.4169Z" fill="white" stroke="white" stroke-width="3"/>
<path d="M36.0098 5.00536L36.0047 5.0022L35.9961 4.99693C28.7885 0.564348 20.2574 0.615778 13.5496 3.63704C6.83947 6.65935 1.5 12.9085 1.5 21.1024V70.9029C1.5 79.0976 6.84039 85.3436 13.5504 88.364C20.2285 91.3701 28.713 91.434 35.8999 87.0671L78.6181 63.8089L78.6524 63.7902L78.6857 63.7698L78.7415 63.7355C78.7415 63.7355 78.7416 63.7355 78.7416 63.7355C85.0199 59.8813 88.2376 53.7916 88.2385 47.631C88.2395 41.4704 85.0237 35.3801 78.7472 31.5245L78.747 31.5243L78.7404 31.5203L36.0098 5.00536Z" fill="white" stroke="white" stroke-width="3" stroke-miterlimit="2.2041"/>
<path fill-rule="evenodd" clip-rule="evenodd" d="M14.1656 5.00471C20.4659 2.167 28.4672 2.12775 35.2103 6.27465L35.2189 6.27993L77.9567 32.7993C77.9585 32.8004 77.9603 32.8015 77.9621 32.8026C89.6658 39.992 89.664 55.2702 77.9567 62.4572L77.9008 62.4915L35.1509 85.767C28.4206 89.871 20.448 89.8239 14.1661 86.9962C7.86185 84.1584 3 78.3747 3 70.9029V21.1024C3 13.6311 7.86129 7.84424 14.1656 5.00471ZM16.2775 9.4198C11.3795 11.6259 8.01613 15.8874 8.01613 21.1024V70.9029C8.01613 76.1174 11.379 80.3759 16.2769 82.5807C21.1794 84.7874 27.3589 84.7911 32.5267 81.6183L32.5827 81.5839L75.3289 58.3105C83.8715 53.0208 83.8536 42.1791 75.275 36.9128L75.2647 36.9064L32.5251 10.386L32.5209 10.3834C27.3546 7.20825 21.1781 7.21248 16.2775 9.4198Z" fill="#333333"/>
<path fill-rule="evenodd" clip-rule="evenodd" d="M27.8793 34.5794C32.5575 34.5794 36.3378 38.2601 36.3378 42.7874C36.3378 50.8114 29.6496 57.3019 21.3806 57.2896H4.2864V34.5794H27.8793ZM25.5975 48.7699C22.8744 49.132 20.366 47.2849 19.9928 44.6424C19.6196 41.9999 21.5234 39.5656 24.2465 39.2035C26.9697 38.8414 29.4781 40.6889 29.8513 43.3314C30.2245 45.9739 28.3207 48.4078 25.5975 48.7699Z" fill="#333333"/>
<path fill-rule="evenodd" clip-rule="evenodd" d="M60.187 34.5794C55.5215 34.5794 51.7411 38.2601 51.7411 42.7874C51.7411 50.8114 58.4297 57.3019 66.6733 57.2896H79.3673C80.7454 57.2896 82.0605 56.7619 83.0341 55.8172C84.0077 54.8848 84.5513 53.6087 84.5513 52.2714V42.6647C84.5513 40.5299 83.679 38.4686 82.1111 36.9473C80.556 35.4259 78.4317 34.5794 76.219 34.5794H60.187ZM61.2686 48.371C63.9917 48.7331 66.5002 46.886 66.8734 44.2435C67.2489 41.5843 65.3451 39.15 62.6196 38.8046C59.8964 38.4425 57.388 40.29 57.0148 42.9325C56.6416 45.575 58.5454 48.0089 61.2686 48.371Z" fill="#333333"/>
<path fill-rule="evenodd" clip-rule="evenodd" d="M61.4227 19.88C60.1357 19.1778 59.4048 17.7959 59.546 16.3573C59.6911 14.9304 60.6943 13.722 62.1126 13.2727C65.8747 12.081 69.9792 12.3813 73.5066 14.1291C77.034 15.8769 79.7135 18.9 80.9416 22.5506L81.5459 24.3468C82.0245 25.7697 81.5346 27.3188 80.3133 28.2348C79.0919 29.1509 77.4282 29.2262 76.1218 28.4268C72.5256 26.1975 69.1563 24.1285 69.1563 24.1285C69.1563 24.1285 65.2557 21.9828 61.4227 19.88Z" fill="#333333"/>
<path fill-rule="evenodd" clip-rule="evenodd" d="M30.8644 19.887C32.1553 19.173 32.898 17.795 32.7449 16.3525C32.5917 14.9101 31.5884 13.7019 30.1701 13.2526C26.408 12.0609 22.3277 12.3687 18.8043 14.1048C15.2808 15.841 12.6132 18.8678 11.389 22.5067L10.7769 24.3263C10.2982 25.7492 10.788 27.2982 12.0093 28.2143C13.2307 29.1303 14.8945 29.2056 16.2008 28.4063C19.797 26.1769 23.1664 24.1081 23.1664 24.1081C23.1664 24.1081 27.0434 21.9935 30.8644 19.887Z" fill="#333333"/>
<path fill-rule="evenodd" clip-rule="evenodd" d="M47.0553 56.3493C47.0553 55.8623 46.8548 55.3991 46.5076 55.0564C46.1527 54.7137 45.6744 54.5215 45.1729 54.5215C43.9463 54.5215 42.3415 54.5215 41.1149 54.5215C40.6134 54.5215 40.1351 54.7137 39.7802 55.0564C39.4253 55.3991 39.2325 55.8623 39.2325 56.3493C39.2325 56.8303 39.433 57.2992 39.7802 57.6419C40.1351 57.9846 40.6134 58.1771 41.1149 58.1771C42.3415 58.1771 43.9463 58.1771 45.1729 58.1771C45.6744 58.1771 46.1527 57.9846 46.5076 57.6419C46.8548 57.2992 47.0553 56.8363 47.0553 56.3493Z" fill="#333333" stroke="#333333" stroke-width="0.410115" stroke-miterlimit="1.5" stroke-linecap="round" stroke-linejoin="round"/>
<path fill-rule="evenodd" clip-rule="evenodd" d="M32.5831 62.0716C32.5831 62.0716 33.7622 63.4019 35.6176 64.1918C36.7489 64.6739 38.1077 64.9584 39.598 64.7261C41.4834 64.4299 42.8421 63.6051 43.7938 62.5248C44.8173 61.3574 45.362 59.8588 45.4398 58.279C45.4997 57.0535 44.524 56.0079 43.261 55.9498C41.9981 55.8918 40.9207 56.8387 40.8609 58.07C40.8309 58.645 40.6814 59.2141 40.3043 59.638C39.987 59.9981 39.5023 60.2304 38.8738 60.3292C38.3471 60.4105 37.8682 60.2887 37.4672 60.1145C36.6053 59.7486 36.0426 59.1443 36.0426 59.1443C35.2106 58.2208 33.7622 58.1223 32.8045 58.9296C31.8469 59.7369 31.7512 61.1481 32.5831 62.0716Z" fill="#333333"/>
<path fill-rule="evenodd" clip-rule="evenodd" d="M50.2555 59.1443C50.2555 59.1443 49.6989 59.7486 48.831 60.1145C48.43 60.2829 47.9511 60.4105 47.4244 60.3292C46.7959 60.2304 46.311 59.9981 45.9938 59.638C45.6167 59.2082 45.4673 58.645 45.4374 58.07C45.3775 56.8445 44.3 55.8917 43.0371 55.9498C41.7741 56.0079 40.7987 57.0535 40.8586 58.279C40.9364 59.8588 41.4751 61.3574 42.5046 62.5248C43.4503 63.6051 44.8148 64.4299 46.7002 64.7261C48.1906 64.9584 49.5492 64.6739 50.6804 64.1918C52.5419 63.4019 53.7152 62.0716 53.7152 62.0716C54.5472 61.1481 54.4514 59.7369 53.4937 58.9296C52.536 58.1223 51.0875 58.2208 50.2555 59.1443Z" fill="#333333"/>
</svg>
